<?xml version="1.0" encoding="UTF-8"?>
<svg width="32" height="32" viewBox="0 0 32 32" fill="none" xmlns="http://www.w3.org/2000/svg">
  <circle cx="16" cy="16" r="16" fill="#F7931A"/>
  <path d="M22.5 14.25C22.5 12.1789 20.7711 10.45 18.7 10.45H17.5V8.5H15.5V10.45H13.5V8.5H11.5V10.45H9V12.45H11.5V19.55H9V21.55H11.5V23.5H13.5V21.55H15.5V23.5H17.5V21.55H18.7C20.7711 21.55 22.5 19.8211 22.5 17.75C22.5 16.5 21.75 15.25 20.5 14.75C21.75 14.25 22.5 13.25 22.5 14.25ZM13.5 12.45H18.7C19.6665 12.45 20.5 13.2835 20.5 14.25C20.5 15.2165 19.6665 16.05 18.7 16.05H13.5V12.45ZM18.7 19.55H13.5V16.05H18.7C19.6665 16.05 20.5 16.8835 20.5 17.85C20.5 18.8165 19.6665 19.55 18.7 19.55Z" fill="white"/>
</svg>

