<?xml version="1.0" encoding="UTF-8"?>
<svg width="32" height="32" viewBox="0 0 32 32" fill="none" xmlns="http://www.w3.org/2000/svg">
  <circle cx="16" cy="16" r="16" fill="#0033AD"/>
  <path d="M16.0001 6C15.7351 6 15.4701 6.135 15.3301 6.4L13.6651 9.335C13.5901 9.465 13.5901 9.6 13.6651 9.735L14.0551 10.4C14.1301 10.53 14.2051 10.53 14.2801 10.53H17.7201C17.7951 10.53 17.8701 10.53 17.9451 10.4L18.3351 9.735C18.4101 9.6 18.4101 9.465 18.3351 9.335L16.6701 6.4C16.5301 6.135 16.2651 6 16.0001 6Z" fill="white"/>
  <path d="M20.6 8.8C20.335 8.8 20.145 8.935 20.07 9.2L19.61 10.8C19.61 10.935 19.61 11.07 19.685 11.2L20.07 11.865C20.145 11.995 20.22 12.065 20.37 12.065H23.73C23.88 12.065 23.955 11.995 24.03 11.865L24.415 11.2C24.49 11.07 24.49 10.935 24.415 10.8L23.955 9.2C23.88 8.935 23.69 8.8 23.425 8.8H20.6Z" fill="white"/>
  <path d="M8.57 8.8C8.305 8.8 8.115 8.935 8.04 9.2L7.58 10.8C7.58 10.935 7.58 11.07 7.655 11.2L8.04 11.865C8.115 11.995 8.19 12.065 8.34 12.065H11.7C11.85 12.065 11.925 11.995 12 11.865L12.385 11.2C12.46 11.07 12.46 10.935 12.385 10.8L11.925 9.2C11.85 8.935 11.66 8.8 11.395 8.8H8.57Z" fill="white"/>
  <path d="M5.5 14.4C5.235 14.4 5.045 14.535 4.97 14.8L4.51 16.4C4.51 16.535 4.51 16.67 4.585 16.8L4.97 17.465C5.045 17.595 5.12 17.665 5.27 17.665H8.63C8.78 17.665 8.855 17.595 8.93 17.465L9.315 16.8C9.39 16.67 9.39 16.535 9.315 16.4L8.855 14.8C8.78 14.535 8.59 14.4 8.325 14.4H5.5Z" fill="white"/>
  <path d="M23.675 14.4C23.41 14.4 23.22 14.535 23.145 14.8L22.685 16.4C22.685 16.535 22.685 16.67 22.76 16.8L23.145 17.465C23.22 17.595 23.295 17.665 23.445 17.665H26.805C26.955 17.665 27.03 17.595 27.105 17.465L27.49 16.8C27.565 16.67 27.565 16.535 27.49 16.4L27.03 14.8C26.955 14.535 26.765 14.4 26.5 14.4H23.675Z" fill="white"/>
  <path d="M8.57 20C8.305 20 8.115 20.135 8.04 20.4L7.58 22C7.58 22.135 7.58 22.27 7.655 22.4L8.04 23.065C8.115 23.195 8.19 23.265 8.34 23.265H11.7C11.85 23.265 11.925 23.195 12 23.065L12.385 22.4C12.46 22.27 12.46 22.135 12.385 22L11.925 20.4C11.85 20.135 11.66 20 11.395 20H8.57Z" fill="white"/>
  <path d="M20.6 20C20.335 20 20.145 20.135 20.07 20.4L19.61 22C19.61 22.135 19.61 22.27 19.685 22.4L20.07 23.065C20.145 23.195 20.22 23.265 20.37 23.265H23.73C23.88 23.265 23.955 23.195 24.03 23.065L24.415 22.4C24.49 22.27 24.49 22.135 24.415 22L23.955 20.4C23.88 20.135 23.69 20 23.425 20H20.6Z" fill="white"/>
  <path d="M14.585 22.8C14.32 22.8 14.13 22.935 14.055 23.2L13.595 24.8C13.595 24.935 13.595 25.07 13.67 25.2L14.055 25.865C14.13 25.995 14.205 26.065 14.355 26.065H17.715C17.865 26.065 17.94 25.995 18.015 25.865L18.4 25.2C18.475 25.07 18.475 24.935 18.4 24.8L17.94 23.2C17.865 22.935 17.675 22.8 17.41 22.8H14.585Z" fill="white"/>
  <path d="M12.0001 12.8C11.7351 12.8 11.4701 12.935 11.3301 13.2L9.66506 16.135C9.59006 16.265 9.59006 16.4 9.66506 16.535L10.0551 17.2C10.1301 17.33 10.2051 17.33 10.2801 17.33H13.7201C13.7951 17.33 13.8701 17.33 13.9451 17.2L14.3351 16.535C14.4101 16.4 14.4101 16.265 14.3351 16.135L12.6701 13.2C12.5301 12.935 12.2651 12.8 12.0001 12.8Z" fill="white"/>
  <path d="M20.0001 12.8C19.7351 12.8 19.4701 12.935 19.3301 13.2L17.6651 16.135C17.5901 16.265 17.5901 16.4 17.6651 16.535L18.0551 17.2C18.1301 17.33 18.2051 17.33 18.2801 17.33H21.7201C21.7951 17.33 21.8701 17.33 21.9451 17.2L22.3351 16.535C22.4101 16.4 22.4101 16.265 22.3351 16.135L20.6701 13.2C20.5301 12.935 20.2651 12.8 20.0001 12.8Z" fill="white"/>
  <path d="M16.0001 16C15.7351 16 15.4701 16.135 15.3301 16.4L13.6651 19.335C13.5901 19.465 13.5901 19.6 13.6651 19.735L14.0551 20.4C14.1301 20.53 14.2051 20.53 14.2801 20.53H17.7201C17.7951 20.53 17.8701 20.53 17.9451 20.4L18.3351 19.735C18.4101 19.6 18.4101 19.465 18.3351 19.335L16.6701 16.4C16.5301 16.135 16.2651 16 16.0001 16Z" fill="white"/>
  <path d="M12.0001 19.6C11.7351 19.6 11.4701 19.735 11.3301 20L9.66506 22.935C9.59006 23.065 9.59006 23.2 9.66506 23.335L10.0551 24C10.1301 24.13 10.2051 24.13 10.2801 24.13H13.7201C13.7951 24.13 13.8701 24.13 13.9451 24L14.3351 23.335C14.4101 23.2 14.4101 23.065 14.3351 22.935L12.6701 20C12.5301 19.735 12.2651 19.6 12.0001 19.6Z" fill="white"/>
  <path d="M20.0001 19.6C19.7351 19.6 19.4701 19.735 19.3301 20L17.6651 22.935C17.5901 23.065 17.5901 23.2 17.6651 23.335L18.0551 24C18.1301 24.13 18.2051 24.13 18.2801 24.13H21.7201C21.7951 24.13 21.8701 24.13 21.9451 24L22.3351 23.335C22.4101 23.2 22.4101 23.065 22.3351 22.935L20.6701 20C20.5301 19.735 20.2651 19.6 20.0001 19.6Z" fill="white"/>
</svg>

