<?xml version="1.0" encoding="UTF-8"?>
<svg width="32" height="32" viewBox="0 0 32 32" fill="none" xmlns="http://www.w3.org/2000/svg">
  <circle cx="16" cy="16" r="16" fill="#000000"/>
  <path d="M9.09 20.5C9.18 20.41 9.3 20.36 9.43 20.36H26.75C26.97 20.36 27.08 20.63 26.92 20.78L22.91 24.79C22.82 24.88 22.7 24.93 22.57 24.93H5.25C5.03 24.93 4.92 24.66 5.08 24.51L9.09 20.5Z" fill="#00FFA3"/>
  <path d="M9.09 7.21C9.19 7.12 9.31 7.07 9.43 7.07H26.75C26.97 7.07 27.08 7.34 26.92 7.49L22.91 11.5C22.82 11.59 22.7 11.64 22.57 11.64H5.25C5.03 11.64 4.92 11.37 5.08 11.22L9.09 7.21Z" fill="#00FFA3"/>
  <path d="M22.91 13.82C22.82 13.73 22.7 13.68 22.57 13.68H5.25C5.03 13.68 4.92 13.95 5.08 14.1L9.09 18.11C9.18 18.2 9.3 18.25 9.43 18.25H26.75C26.97 18.25 27.08 17.98 26.92 17.83L22.91 13.82Z" fill="#00FFA3"/>
</svg>

